<?xml version="1.0" standalone="no"?><!DOCTYPE svg PUBLIC "-//W3C//DTD SVG 1.1//EN" "http://www.w3.org/Graphics/SVG/1.1/DTD/svg11.dtd"><svg t="1693185120312" class="icon" viewBox="0 0 1024 1024" version="1.1" xmlns="http://www.w3.org/2000/svg" p-id="3641" xmlns:xlink="http://www.w3.org/1999/xlink" width="128" height="128"><path d="M962.189135 181.311871l-123.621731 801.480886 61.810866 41.207243c68.274221 0 123.62173-55.347509 123.62173-123.62173L962.189135 181.311871z" fill="#ADF5FF" p-id="3642"></path><path d="M61.810865 181.311871L0 900.37827c0 68.274221 55.347509 123.62173 123.62173 123.62173h776.75654v-123.62173h61.810865V181.311871H61.810865z" fill="#D6FAFF" p-id="3643"></path><path d="M876.136048 544.621714L838.567404 243.122736h-50.478873l-61.810865 301.498978zM788.088531 962.189135H900.37827c34.138141 0 41.207243-27.672724 41.207243-61.810865l-27.880821-239.688113H726.277666L788.088531 962.189135z" fill="#199AFF" p-id="3644"></path><path d="M726.277666 482.810849h187.427026v239.688113H726.277666z" fill="#2275FF" p-id="3645"></path><path d="M61.810865 722.501022V900.37827c0 34.138141 27.672724 61.810865 61.810865 61.810865h112.289739l61.810865-301.498978-235.911469 61.810865zM297.722334 544.621714L235.911469 243.122736H61.810865v239.688113z" fill="#10BEFF" p-id="3646"></path><path d="M61.810865 482.810849h235.911469v239.688113H61.810865z" fill="#199AFF" p-id="3647"></path><path d="M788.088531 482.810849V243.122736h-276.088531l-61.810865 301.498978zM450.189135 660.690157L512 962.189135h276.088531V722.501022z" fill="#10BEFF" p-id="3648"></path><path d="M450.189135 482.810849h337.899396v239.688113h-337.899396z" fill="#199AFF" p-id="3649"></path><path d="M235.911469 722.501022V962.189135h276.088531V722.501022l-138.044266-61.810865zM512 482.810849V243.122736h-276.088531v239.688113l138.044265 61.810865z" fill="#08E2FF" p-id="3650"></path><path d="M235.911469 482.810849h276.088531v239.688113h-276.088531z" fill="#10BEFF" p-id="3651"></path><path d="M838.567404 838.567404c34.082511 0 61.810865 27.728354 61.810866 61.810866v61.810865c34.138141 0 61.810865-27.672724 61.810865-61.810865V660.690157l-123.621731 61.810865V838.567404zM962.189135 243.122736h-123.621731v239.688113l123.621731 61.810865z" fill="#2275FF" p-id="3652"></path><path d="M838.567404 482.810849h123.621731v239.688113h-123.621731z" fill="#2A51FF" p-id="3653"></path><path d="M0 181.311871v719.066399c0-68.274221 55.347509-123.62173 123.62173-123.621731V57.690141C55.347509 57.690141 0 113.03765 0 181.311871z" fill="#ADF5FF" p-id="3654"></path><path d="M962.189135 74.269875l-20.603622 330.688129 20.603622 388.37827c36.940233 21.378318 61.810865 61.293714 61.810865 107.041996V181.311871c0-45.750342-24.870632-85.663678-61.810865-107.041996z" fill="#5AECFF" p-id="3655"></path><path d="M900.37827 57.690141v719.066398a122.987139 122.987139 0 0 1 61.810865 16.579735v-719.066399A122.987139 122.987139 0 0 0 900.37827 57.690141z" fill="#ADF5FF" p-id="3656"></path><path d="M512 0v591.323944l169.854197-246.421377C709.704113 308.743211 726.277666 263.448209 726.277666 214.277666c0-118.343082-95.934584-214.277666-214.277666-214.277666z" fill="#FF1B10" p-id="3657"></path><path d="M664.466801 214.277666c0-118.343082-68.261859-214.277666-152.466801-214.277666-118.343082 0-214.277666 95.934584-214.277666 214.277666 0 49.170543 16.573553 94.465545 44.423469 130.624901L512 591.323944l120.856724-246.421377c19.816563-36.159356 31.610076-81.454358 31.610077-130.624901z" fill="#FF451B" p-id="3658"></path><path d="M512 61.810865v304.933602c84.204942 0 152.466801-68.261859 152.466801-152.466801s-68.261859-152.466801-152.466801-152.466801z" fill="#D6FAFF" p-id="3659"></path><path d="M602.655936 214.277666c0-84.204942-40.587074-152.466801-90.655936-152.466801-84.204942 0-152.466801 68.261859-152.466801 152.466801s68.261859 152.466801 152.466801 152.466801c50.068861 0 90.655936-68.261859 90.655936-152.466801z" fill="#FFFFFF" p-id="3660"></path></svg>