<?xml version="1.0" standalone="no"?><!DOCTYPE svg PUBLIC "-//W3C//DTD SVG 1.1//EN" "http://www.w3.org/Graphics/SVG/1.1/DTD/svg11.dtd"><svg t="1693184848117" class="icon" viewBox="0 0 1024 1024" version="1.1" xmlns="http://www.w3.org/2000/svg" p-id="3011" xmlns:xlink="http://www.w3.org/1999/xlink" width="128" height="128"><path d="M1024 92.716298l-61.810865-22.385835L838.567404 558.358149h185.432596z" fill="#ADF5FF" p-id="3012"></path><path d="M768 0l-123.62173 558.358149H962.189135V70.330463z" fill="#D6FAFF" p-id="3013"></path><path d="M1024 558.358149l-61.810865-22.385835-123.621731 232.820925 123.621731 232.820926L1024 1024z" fill="#5AECFF" p-id="3014"></path><path d="M768 465.641851l-123.62173 232.820926 123.62173 232.820925L962.189135 1001.614165v-465.641851z" fill="#ADF5FF" p-id="3015"></path><path d="M388.37827 465.641851l123.62173 558.358149 256-92.716298V465.641851z" fill="#5AECFF" p-id="3016"></path><path d="M768 465.641851V0L512 92.716298l-123.62173 232.820925 123.62173 232.820926z" fill="#ADF5FF" p-id="3017"></path><path d="M512 558.358149V92.716298L256 0l-123.62173 558.358149z" fill="#D6FAFF" p-id="3018"></path><path d="M256 465.641851l-123.62173 232.820926 123.62173 232.820925 256 92.716298V558.358149z" fill="#ADF5FF" p-id="3019"></path><path d="M0 558.358149v465.641851l256-92.716298V465.641851l-128-82.414487z" fill="#D6FAFF" p-id="3020"></path><path d="M256 0L0 92.716298v465.641851l256-92.716298z" fill="#FFFFFF" p-id="3021"></path><path d="M900.37827 113.684604l-61.810866 422.28771h123.621731V136.070439z" fill="#08E2FF" p-id="3022"></path><path d="M768 65.739976l-123.62173 470.232338H900.37827V113.684604z" fill="#5AECFF" p-id="3023"></path><path d="M962.189135 535.972314l-61.810865-22.385835-61.810866 199.949907 61.810866 199.949908 61.810865 22.387895z" fill="#10BEFF" p-id="3024"></path><path d="M768 465.641851l-123.62173 199.949908 123.62173 199.951967L900.37827 913.486294V513.586479z" fill="#08E2FF" p-id="3025"></path><path d="M388.37827 465.641851l123.62173 492.618173 256-92.716298V465.641851z" fill="#199AFF" p-id="3026"></path><path d="M768 465.641851V65.739976l-256 92.716298-123.62173 199.951967 123.62173 199.949908z" fill="#10BEFF" p-id="3027"></path><path d="M512 558.358149V158.456274l-256-92.716298L132.37827 558.358149z" fill="#08E2FF" p-id="3028"></path><path d="M256 465.641851l-123.62173 199.949908 123.62173 199.951967 256 92.716298V558.358149z" fill="#10BEFF" p-id="3029"></path><path d="M61.810865 535.972314v399.901875l194.189135-70.330463V465.641851l-97.094567-82.414487z" fill="#08E2FF" p-id="3030"></path><path d="M256 65.739976L61.810865 136.070439v399.901875L256 465.641851z" fill="#5AECFF" p-id="3031"></path></svg>